<?xml version="1.0" encoding="utf-8"?>
<!-- Generator: Adobe Illustrator 15.0.0, SVG Export Plug-In . SVG Version: 6.00 Build 0)  -->
<!DOCTYPE svg PUBLIC "-//W3C//DTD SVG 1.1//EN" "http://www.w3.org/Graphics/SVG/1.1/DTD/svg11.dtd">
<svg version="1.1" xmlns="http://www.w3.org/2000/svg" xmlns:xlink="http://www.w3.org/1999/xlink" x="0px" y="0px" width="96px"
	 height="96px" viewBox="0 0 96 96" enable-background="new 0 0 96 96" xml:space="preserve">
<g id="DO_NOT_EDIT_-_BOUNDING_BOX">
	<rect id="BOUNDING_BOX" fill="none" width="96" height="96"/>
</g>
<g id="DO_NOT_EDIT_-_SHADOW">
	<path id="SHADOW" opacity="0.4" d="M88.023,49c0,29.633-10.364,40-40,40c-29.635,0-40-10.367-40-40c0-29.634,10.366-40,40-40
		C77.659,9,88.023,19.365,88.023,49z"/>
</g>
<g id="GRAY_BACKGROUNDS">
	<g id="GRAY5">
		<linearGradient id="GRAY_5_1_" gradientUnits="userSpaceOnUse" x1="47.9995" y1="8.0107" x2="47.9995" y2="87.9897">
			<stop  offset="0.0364" style="stop-color:#DDDDDD"/>
			<stop  offset="0.4616" style="stop-color:#BFBFC1"/>
			<stop  offset="1" style="stop-color:#949499"/>
		</linearGradient>
		<path id="GRAY_5" fill-rule="evenodd" clip-rule="evenodd" fill="url(#GRAY_5_1_)" d="M8,47.989c0,29.633,10.365,40,40,40
			c29.637,0,40-10.367,40-40c0-28.985-9.926-39.53-38.091-39.979h-3.817C17.928,8.459,8,19.004,8,47.989z"/>
		<linearGradient id="HIGHLIGHT_GRA5_1_" gradientUnits="userSpaceOnUse" x1="47.9995" y1="8" x2="47.9995" y2="88.0005">
			<stop  offset="0.0364" style="stop-color:#FFFFFF"/>
			<stop  offset="0.3366" style="stop-color:#E1E1E3"/>
			<stop  offset="0.9874" style="stop-color:#96969A"/>
			<stop  offset="1" style="stop-color:#949499"/>
		</linearGradient>
		<path id="HIGHLIGHT_GRA5" opacity="0.25" fill="url(#HIGHLIGHT_GRA5_1_)" d="M48,8C18.365,8,8,18.365,8,48
			c0,29.633,10.365,40,40,40c29.637,0,40-10.367,40-40C88,18.365,77.637,8,48,8z M48,87.023C18.842,87.023,9,77.176,9,48
			S18.842,8.977,48,8.977S87,18.824,87,48S77.158,87.023,48,87.023z"/>
	</g>
	<g id="GRAY4" display="none">
		<linearGradient id="GRAY_4_1_" gradientUnits="userSpaceOnUse" x1="47.9995" y1="8.0107" x2="47.9995" y2="87.9897">
			<stop  offset="0.0364" style="stop-color:#E0E0E0"/>
			<stop  offset="0.3262" style="stop-color:#D6D6D6"/>
			<stop  offset="0.8148" style="stop-color:#BCBCBC"/>
			<stop  offset="1" style="stop-color:#B0B0B0"/>
		</linearGradient>
		<path id="GRAY_4" display="inline" fill-rule="evenodd" clip-rule="evenodd" fill="url(#GRAY_4_1_)" d="M8,47.989
			c0,29.633,10.365,40,40,40c29.637,0,40-10.367,40-40c0-28.985-9.926-39.53-38.091-39.979h-3.817C17.928,8.459,8,19.004,8,47.989z"
			/>
		<linearGradient id="HIGHLIGHT_GRA4_2_" gradientUnits="userSpaceOnUse" x1="47.9995" y1="8" x2="47.9995" y2="88.0005">
			<stop  offset="0.0364" style="stop-color:#E8E8E8"/>
			<stop  offset="0.2978" style="stop-color:#DEDEDE"/>
			<stop  offset="0.7385" style="stop-color:#C4C4C4"/>
			<stop  offset="1" style="stop-color:#B1B1B1"/>
		</linearGradient>
		<path id="HIGHLIGHT_GRA4_1_" display="inline" fill="url(#HIGHLIGHT_GRA4_2_)" d="M48,8C18.365,8,8,18.365,8,48
			c0,29.633,10.365,40,40,40c29.637,0,40-10.367,40-40C88,18.365,77.637,8,48,8z M48,87.023C18.842,87.023,9,77.176,9,48
			S18.842,8.977,48,8.977S87,18.824,87,48S77.158,87.023,48,87.023z"/>
	</g>
	<g id="GRAY3" display="none">
		<linearGradient id="GRAY_3_1_" gradientUnits="userSpaceOnUse" x1="47.9995" y1="8.0107" x2="47.9995" y2="87.9897">
			<stop  offset="0.0364" style="stop-color:#E9E9E9"/>
			<stop  offset="0.3218" style="stop-color:#DFDFDF"/>
			<stop  offset="0.8028" style="stop-color:#C5C5C5"/>
			<stop  offset="1" style="stop-color:#B8B8B8"/>
		</linearGradient>
		<path id="GRAY_3" display="inline" fill-rule="evenodd" clip-rule="evenodd" fill="url(#GRAY_3_1_)" d="M8,47.989
			c0,29.633,10.365,40,40,40c29.637,0,40-10.367,40-40c0-28.985-9.926-39.53-38.091-39.979h-3.817C17.928,8.459,8,19.004,8,47.989z"
			/>
		<linearGradient id="HIGHLIGHT_GRA3_2_" gradientUnits="userSpaceOnUse" x1="47.9995" y1="8" x2="47.9995" y2="88.0005">
			<stop  offset="0.0364" style="stop-color:#EFEFEF"/>
			<stop  offset="0.3133" style="stop-color:#E5E5E5"/>
			<stop  offset="0.7799" style="stop-color:#CBCBCB"/>
			<stop  offset="1" style="stop-color:#BCBCBC"/>
		</linearGradient>
		<path id="HIGHLIGHT_GRA3_1_" display="inline" fill="url(#HIGHLIGHT_GRA3_2_)" d="M48,8C18.365,8,8,18.365,8,48
			c0,29.633,10.365,40,40,40c29.637,0,40-10.367,40-40C88,18.365,77.637,8,48,8z M48,87.023C18.842,87.023,9,77.176,9,48
			S18.842,8.977,48,8.977S87,18.824,87,48S77.158,87.023,48,87.023z"/>
	</g>
	<g id="GRAY2" display="none">
		<linearGradient id="GRAY_2_1_" gradientUnits="userSpaceOnUse" x1="47.9995" y1="8.0107" x2="47.9995" y2="87.9897">
			<stop  offset="0.0364" style="stop-color:#EEEEEE"/>
			<stop  offset="0.3262" style="stop-color:#E4E4E4"/>
			<stop  offset="0.8148" style="stop-color:#CACACA"/>
			<stop  offset="1" style="stop-color:#BEBEBE"/>
		</linearGradient>
		<path id="GRAY_2" display="inline" fill-rule="evenodd" clip-rule="evenodd" fill="url(#GRAY_2_1_)" d="M8,47.989
			c0,29.633,10.365,40,40,40c29.637,0,40-10.367,40-40c0-28.985-9.926-39.53-38.091-39.979h-3.817C17.928,8.459,8,19.004,8,47.989z"
			/>
		<linearGradient id="HIGHLIGHT_GRA2_1_" gradientUnits="userSpaceOnUse" x1="47.9995" y1="8" x2="47.9995" y2="88.0005">
			<stop  offset="0.0364" style="stop-color:#F2F2F2"/>
			<stop  offset="0.3133" style="stop-color:#E8E8E8"/>
			<stop  offset="0.7799" style="stop-color:#CECECE"/>
			<stop  offset="1" style="stop-color:#BFBFBF"/>
		</linearGradient>
		<path id="HIGHLIGHT_GRA2" display="inline" fill="url(#HIGHLIGHT_GRA2_1_)" d="M48,8C18.365,8,8,18.365,8,48
			c0,29.633,10.365,40,40,40c29.637,0,40-10.367,40-40C88,18.365,77.637,8,48,8z M48,87.023C18.842,87.023,9,77.176,9,48
			S18.842,8.977,48,8.977S87,18.824,87,48S77.158,87.023,48,87.023z"/>
	</g>
	<g id="GRAY1" display="none">
		<linearGradient id="GRAY_1_1_" gradientUnits="userSpaceOnUse" x1="47.9995" y1="8.0107" x2="47.9995" y2="87.9897">
			<stop  offset="0.0364" style="stop-color:#F9F9F9"/>
			<stop  offset="0.2102" style="stop-color:#EFEFEF"/>
			<stop  offset="0.5042" style="stop-color:#D6D6D5"/>
			<stop  offset="0.8303" style="stop-color:#B2B2B0"/>
			<stop  offset="1" style="stop-color:#ABABA8"/>
		</linearGradient>
		<path id="GRAY_1" display="inline" fill-rule="evenodd" clip-rule="evenodd" fill="url(#GRAY_1_1_)" d="M8,47.989
			c0,29.633,10.365,40,40,40c29.637,0,40-10.367,40-40c0-28.985-9.926-39.53-38.091-39.979h-3.817C17.928,8.459,8,19.004,8,47.989z"
			/>
		<linearGradient id="HIGHLIGHT_GRA1_1_" gradientUnits="userSpaceOnUse" x1="47.9995" y1="8" x2="47.9995" y2="88.0005">
			<stop  offset="0.0364" style="stop-color:#FCFCFC"/>
			<stop  offset="0.2262" style="stop-color:#F3F3F2"/>
			<stop  offset="0.5471" style="stop-color:#DAD9D8"/>
			<stop  offset="0.9576" style="stop-color:#B2B0AD"/>
			<stop  offset="1" style="stop-color:#ADABA8"/>
		</linearGradient>
		<path id="HIGHLIGHT_GRA1" display="inline" fill="url(#HIGHLIGHT_GRA1_1_)" d="M48,8C18.365,8,8,18.365,8,48
			c0,29.633,10.365,40,40,40c29.637,0,40-10.367,40-40C88,18.365,77.637,8,48,8z M48,87.023C18.842,87.023,9,77.176,9,48
			S18.842,8.977,48,8.977S87,18.824,87,48S77.158,87.023,48,87.023z"/>
	</g>
</g>
<g id="ORANGE_BACKGROUNDS" display="none">
	<g id="ORANGE_5" display="inline">
		<linearGradient id="RED_x2F_ORANGE_5_2_" gradientUnits="userSpaceOnUse" x1="47.9995" y1="8.0107" x2="47.9995" y2="87.9897">
			<stop  offset="0" style="stop-color:#FFDB62"/>
			<stop  offset="0.1393" style="stop-color:#FAD15C"/>
			<stop  offset="0.3741" style="stop-color:#EDB74D"/>
			<stop  offset="0.4848" style="stop-color:#E6A844"/>
			<stop  offset="1" style="stop-color:#C96B25"/>
		</linearGradient>
		<path id="RED_x2F_ORANGE_5_1_" fill="url(#RED_x2F_ORANGE_5_2_)" d="M8,47.988c0,29.634,10.365,40.001,40,40.001
			c29.637,0,40-10.367,40-40.001c0-28.984-9.926-39.529-38.091-39.978h-3.817C17.928,8.459,8,19.004,8,47.988z"/>
		<linearGradient id="HIGHLIGHTS_RO5_1_" gradientUnits="userSpaceOnUse" x1="47.9995" y1="8.2559" x2="47.9995" y2="87.5043">
			<stop  offset="0" style="stop-color:#FFFFFF"/>
			<stop  offset="0.0958" style="stop-color:#FDF8F5"/>
			<stop  offset="0.2579" style="stop-color:#F6E6DB"/>
			<stop  offset="0.4666" style="stop-color:#EBC9AF"/>
			<stop  offset="0.7136" style="stop-color:#DCA073"/>
			<stop  offset="0.9904" style="stop-color:#CA6D28"/>
			<stop  offset="1" style="stop-color:#C96B25"/>
		</linearGradient>
		<path id="HIGHLIGHTS_RO5" opacity="0.25" fill="url(#HIGHLIGHTS_RO5_1_)" d="M48,8C18.365,8,8,18.365,8,48
			c0,29.633,10.365,40,40,40c29.637,0,40-10.367,40-40C88,18.365,77.637,8,48,8z M48,87.023C18.842,87.023,9,77.176,9,48
			S18.842,8.977,48,8.977S87,18.824,87,48S77.158,87.023,48,87.023z"/>
	</g>
	<g id="ORANGE_4">
		<linearGradient id="RED_x2F_ORANGE_4_1_" gradientUnits="userSpaceOnUse" x1="47.9995" y1="8.0107" x2="47.9995" y2="87.9897">
			<stop  offset="0.0364" style="stop-color:#FBBF60"/>
			<stop  offset="0.2109" style="stop-color:#F8B556"/>
			<stop  offset="0.503" style="stop-color:#F19B3D"/>
			<stop  offset="1" style="stop-color:#C76121"/>
		</linearGradient>
		<path id="RED_x2F_ORANGE_4_2_" display="inline" fill="url(#RED_x2F_ORANGE_4_1_)" d="M8,47.988c0,29.634,10.365,40.001,40,40.001
			c29.637,0,40-10.367,40-40.001c0-28.984-9.926-39.529-38.091-39.978h-3.817C17.928,8.459,8,19.004,8,47.988z"/>
		<linearGradient id="HIGHLIGHTS_RO4_2_" gradientUnits="userSpaceOnUse" x1="47.9995" y1="8.2559" x2="47.9995" y2="87.5043">
			<stop  offset="0.0364" style="stop-color:#FFFFFF"/>
			<stop  offset="0.1274" style="stop-color:#FDF8F5"/>
			<stop  offset="0.2815" style="stop-color:#F6E5DB"/>
			<stop  offset="0.4799" style="stop-color:#EBC6AF"/>
			<stop  offset="0.7147" style="stop-color:#DC9C73"/>
			<stop  offset="0.9778" style="stop-color:#C96628"/>
			<stop  offset="1" style="stop-color:#C76121"/>
		</linearGradient>
		<path id="HIGHLIGHTS_RO4_1_" display="inline" opacity="0.25" fill="url(#HIGHLIGHTS_RO4_2_)" d="M48,8C18.365,8,8,18.365,8,48
			c0,29.633,10.365,40,40,40c29.637,0,40-10.367,40-40C88,18.365,77.637,8,48,8z M48,87.023C18.842,87.023,9,77.176,9,48
			S18.842,8.977,48,8.977S87,18.824,87,48S77.158,87.023,48,87.023z"/>
	</g>
	<g id="ORANGE_3">
		<linearGradient id="RED_x2F_ORANGE_3_2_" gradientUnits="userSpaceOnUse" x1="47.9995" y1="8.0107" x2="47.9995" y2="87.9897">
			<stop  offset="0.0364" style="stop-color:#F6B85E"/>
			<stop  offset="0.2008" style="stop-color:#F4AE5A"/>
			<stop  offset="0.478" style="stop-color:#EE9451"/>
			<stop  offset="0.5394" style="stop-color:#EC8D4E"/>
			<stop  offset="0.8228" style="stop-color:#D46A3B"/>
			<stop  offset="1" style="stop-color:#C95932"/>
		</linearGradient>
		<path id="RED_x2F_ORANGE_3_1_" display="inline" fill="url(#RED_x2F_ORANGE_3_2_)" d="M8,47.988c0,29.634,10.365,40.001,40,40.001
			c29.637,0,40-10.367,40-40.001c0-28.984-9.926-39.529-38.091-39.978h-3.817C17.928,8.459,8,19.004,8,47.988z"/>
		<linearGradient id="HIGHLIGHTS_RO3_2_" gradientUnits="userSpaceOnUse" x1="47.9995" y1="8.2559" x2="47.9995" y2="87.5043">
			<stop  offset="0.0364" style="stop-color:#FFFFFF"/>
			<stop  offset="0.133" style="stop-color:#FCF7F5"/>
			<stop  offset="0.2967" style="stop-color:#F5E2DB"/>
			<stop  offset="0.5073" style="stop-color:#EABFAF"/>
			<stop  offset="0.7537" style="stop-color:#DA8F74"/>
			<stop  offset="1" style="stop-color:#C95932"/>
		</linearGradient>
		<path id="HIGHLIGHTS_RO3_1_" display="inline" opacity="0.25" fill="url(#HIGHLIGHTS_RO3_2_)" d="M48,8C18.365,8,8,18.365,8,48
			c0,29.633,10.365,40,40,40c29.637,0,40-10.367,40-40C88,18.365,77.637,8,48,8z M48,87.023C18.842,87.023,9,77.176,9,48
			S18.842,8.977,48,8.977S87,18.824,87,48S77.158,87.023,48,87.023z"/>
	</g>
	<g id="ORANGE_2">
		<linearGradient id="RED_x2F_ORANGE_2_1_" gradientUnits="userSpaceOnUse" x1="47.9995" y1="8.0107" x2="47.9995" y2="87.9897">
			<stop  offset="0.0364" style="stop-color:#FAA824"/>
			<stop  offset="0.3742" style="stop-color:#EA8A20"/>
			<stop  offset="1" style="stop-color:#C74A17"/>
		</linearGradient>
		<path id="RED_x2F_ORANGE_2_2_" display="inline" fill="url(#RED_x2F_ORANGE_2_1_)" d="M8,47.988c0,29.634,10.365,40.001,40,40.001
			c29.637,0,40-10.367,40-40.001c0-28.984-9.926-39.529-38.091-39.978h-3.817C17.928,8.459,8,19.004,8,47.988z"/>
		<linearGradient id="HIGHLIGHTS_RO2_1_" gradientUnits="userSpaceOnUse" x1="47.9995" y1="8.2559" x2="47.9995" y2="87.5043">
			<stop  offset="0.0364" style="stop-color:#FFFFFF"/>
			<stop  offset="0.185" style="stop-color:#F8E8E1"/>
			<stop  offset="0.5097" style="stop-color:#E5AC95"/>
			<stop  offset="0.9833" style="stop-color:#C84D1B"/>
			<stop  offset="1" style="stop-color:#C74A17"/>
		</linearGradient>
		<path id="HIGHLIGHTS_RO2_2_" display="inline" opacity="0.25" fill="url(#HIGHLIGHTS_RO2_1_)" d="M48,8C18.365,8,8,18.365,8,48
			c0,29.633,10.365,40,40,40c29.637,0,40-10.367,40-40C88,18.365,77.637,8,48,8z M48,87.023C18.842,87.023,9,77.176,9,48
			S18.842,8.977,48,8.977S87,18.824,87,48S77.158,87.023,48,87.023z"/>
	</g>
	<g id="ORANGE_1">
		<linearGradient id="RED_x2F_ORANGE_1_2_" gradientUnits="userSpaceOnUse" x1="47.9995" y1="8.0107" x2="47.9995" y2="87.9897">
			<stop  offset="0.0364" style="stop-color:#FF8A36"/>
			<stop  offset="0.3489" style="stop-color:#EF7130"/>
			<stop  offset="1" style="stop-color:#C73321"/>
		</linearGradient>
		<path id="RED_x2F_ORANGE_1_1_" display="inline" fill="url(#RED_x2F_ORANGE_1_2_)" d="M8,47.988c0,29.634,10.365,40.001,40,40.001
			c29.637,0,40-10.367,40-40.001c0-28.984-9.926-39.529-38.091-39.978h-3.817C17.928,8.459,8,19.004,8,47.988z"/>
		<linearGradient id="HIGHLIGHTS_RO1_2_" gradientUnits="userSpaceOnUse" x1="47.9995" y1="8.2559" x2="47.9995" y2="87.5043">
			<stop  offset="0.0364" style="stop-color:#FFFFFF"/>
			<stop  offset="0.1274" style="stop-color:#FCF7F5"/>
			<stop  offset="0.2815" style="stop-color:#F5E0DB"/>
			<stop  offset="0.4799" style="stop-color:#EABBAF"/>
			<stop  offset="0.7147" style="stop-color:#DA8873"/>
			<stop  offset="0.9778" style="stop-color:#C64828"/>
			<stop  offset="1" style="stop-color:#C44221"/>
		</linearGradient>
		<path id="HIGHLIGHTS_RO1_1_" display="inline" opacity="0.25" fill="url(#HIGHLIGHTS_RO1_2_)" d="M48,8C18.365,8,8,18.365,8,48
			c0,29.633,10.365,40,40,40c29.637,0,40-10.367,40-40C88,18.365,77.637,8,48,8z M48,87.023C18.842,87.023,9,77.176,9,48
			S18.842,8.977,48,8.977S87,18.824,87,48S77.158,87.023,48,87.023z"/>
	</g>
</g>
<g id="GREEN_BACKGROUNDS" display="none">
	<g id="GREEN4" display="inline">
		<linearGradient id="GREEN_4_1_" gradientUnits="userSpaceOnUse" x1="47.9995" y1="8.0107" x2="47.9995" y2="87.9897">
			<stop  offset="0.0364" style="stop-color:#6BAB40"/>
			<stop  offset="0.6061" style="stop-color:#537734"/>
			<stop  offset="1" style="stop-color:#4F5C26"/>
		</linearGradient>
		<path id="GREEN_4_3_" fill-rule="evenodd" clip-rule="evenodd" fill="url(#GREEN_4_1_)" d="M8,47.989c0,29.633,10.365,40,40,40
			c29.637,0,40-10.367,40-40c0-28.985-9.926-39.53-38.091-39.979h-3.817C17.928,8.459,8,19.004,8,47.989z"/>
		<linearGradient id="HIGHLIGHT_GR4_1_" gradientUnits="userSpaceOnUse" x1="47.9995" y1="8" x2="47.9995" y2="88.0005">
			<stop  offset="0.0364" style="stop-color:#FFFFFF"/>
			<stop  offset="0.8255" style="stop-color:#6F7A4E"/>
			<stop  offset="1" style="stop-color:#4F5C26"/>
		</linearGradient>
		<path id="HIGHLIGHT_GR4" opacity="0.25" fill="url(#HIGHLIGHT_GR4_1_)" d="M48,8C18.365,8,8,18.365,8,48c0,29.633,10.365,40,40,40
			c29.637,0,40-10.367,40-40C88,18.365,77.637,8,48,8z M48,87.023C18.842,87.023,9,77.176,9,48S18.842,8.977,48,8.977
			S87,18.824,87,48S77.158,87.023,48,87.023z"/>
	</g>
	<g id="GREEN3">
		<linearGradient id="GREEN_3_1_" gradientUnits="userSpaceOnUse" x1="47.9995" y1="8.0107" x2="47.9995" y2="87.9897">
			<stop  offset="0.0364" style="stop-color:#70B83B"/>
			<stop  offset="0.2066" style="stop-color:#6AAE37"/>
			<stop  offset="0.4945" style="stop-color:#5B942B"/>
			<stop  offset="0.8626" style="stop-color:#426917"/>
			<stop  offset="1" style="stop-color:#38570F"/>
		</linearGradient>
		<path id="GREEN_3_2_" display="inline" fill-rule="evenodd" clip-rule="evenodd" fill="url(#GREEN_3_1_)" d="M8,47.989
			c0,29.633,10.365,40,40,40c29.637,0,40-10.367,40-40c0-28.985-9.926-39.53-38.091-39.979h-3.817C17.928,8.459,8,19.004,8,47.989z"
			/>
		<linearGradient id="HIGHLIGHT_GR3_1_" gradientUnits="userSpaceOnUse" x1="47.9995" y1="8" x2="47.9995" y2="88.0005">
			<stop  offset="0.0364" style="stop-color:#FFFFFF"/>
			<stop  offset="0.1222" style="stop-color:#F7F8F5"/>
			<stop  offset="0.2675" style="stop-color:#E1E5DB"/>
			<stop  offset="0.4545" style="stop-color:#BDC7AF"/>
			<stop  offset="0.6759" style="stop-color:#8B9D73"/>
			<stop  offset="0.9238" style="stop-color:#4D6828"/>
			<stop  offset="1" style="stop-color:#38570F"/>
		</linearGradient>
		<path id="HIGHLIGHT_GR3" display="inline" opacity="0.25" fill="url(#HIGHLIGHT_GR3_1_)" d="M48,8C18.365,8,8,18.365,8,48
			c0,29.633,10.365,40,40,40c29.637,0,40-10.367,40-40C88,18.365,77.637,8,48,8z M48,87.023C18.842,87.023,9,77.176,9,48
			S18.842,8.977,48,8.977S87,18.824,87,48S77.158,87.023,48,87.023z"/>
	</g>
	<g id="GREEN2">
		<linearGradient id="GREEN_2_1_" gradientUnits="userSpaceOnUse" x1="47.9995" y1="8.0107" x2="47.9995" y2="87.9897">
			<stop  offset="0.0364" style="stop-color:#75B561"/>
			<stop  offset="0.223" style="stop-color:#6EAB5E"/>
			<stop  offset="0.5376" style="stop-color:#5B9157"/>
			<stop  offset="0.6667" style="stop-color:#528454"/>
			<stop  offset="1" style="stop-color:#4B6145"/>
		</linearGradient>
		<path id="GREEN_2_2_" display="inline" fill-rule="evenodd" clip-rule="evenodd" fill="url(#GREEN_2_1_)" d="M8,47.989
			c0,29.633,10.365,40,40,40c29.637,0,40-10.367,40-40c0-28.985-9.926-39.53-38.091-39.979h-3.817C17.928,8.459,8,19.004,8,47.989z"
			/>
		<linearGradient id="HIGHLIGHT_GR2_1_" gradientUnits="userSpaceOnUse" x1="47.9995" y1="8" x2="47.9995" y2="88.0005">
			<stop  offset="0.0364" style="stop-color:#FFFFFF"/>
			<stop  offset="0.1404" style="stop-color:#F5F7F5"/>
			<stop  offset="0.3165" style="stop-color:#DCE0DB"/>
			<stop  offset="0.543" style="stop-color:#B2BBAF"/>
			<stop  offset="0.8084" style="stop-color:#798974"/>
			<stop  offset="1" style="stop-color:#4B6145"/>
		</linearGradient>
		<path id="HIGHLIGHT_GR2" display="inline" opacity="0.25" fill="url(#HIGHLIGHT_GR2_1_)" d="M48,8C18.365,8,8,18.365,8,48
			c0,29.633,10.365,40,40,40c29.637,0,40-10.367,40-40C88,18.365,77.637,8,48,8z M48,87.023C18.842,87.023,9,77.176,9,48
			S18.842,8.977,48,8.977S87,18.824,87,48S77.158,87.023,48,87.023z"/>
	</g>
	<g id="GREEN1">
		<linearGradient id="GREEN_1_1_" gradientUnits="userSpaceOnUse" x1="47.9995" y1="8.0107" x2="47.9995" y2="87.9897">
			<stop  offset="0.0364" style="stop-color:#9CD061"/>
			<stop  offset="0.219" style="stop-color:#94C957"/>
			<stop  offset="0.5269" style="stop-color:#7DB63D"/>
			<stop  offset="0.6909" style="stop-color:#6FAA2C"/>
			<stop  offset="1" style="stop-color:#4A8021"/>
		</linearGradient>
		<path id="GREEN_1_2_" display="inline" fill-rule="evenodd" clip-rule="evenodd" fill="url(#GREEN_1_1_)" d="M8,47.989
			c0,29.633,10.365,40,40,40c29.637,0,40-10.367,40-40c0-28.985-9.926-39.53-38.091-39.979h-3.817C17.928,8.459,8,19.004,8,47.989z"
			/>
		<linearGradient id="HIGHLIGHT_GR1_1_" gradientUnits="userSpaceOnUse" x1="47.9995" y1="8" x2="47.9995" y2="88.0005">
			<stop  offset="0.0364" style="stop-color:#FFFFFF"/>
			<stop  offset="0.1274" style="stop-color:#F7F9F5"/>
			<stop  offset="0.2815" style="stop-color:#E1EADB"/>
			<stop  offset="0.4799" style="stop-color:#BED1AF"/>
			<stop  offset="0.7147" style="stop-color:#8DAF73"/>
			<stop  offset="0.9778" style="stop-color:#4F8428"/>
			<stop  offset="1" style="stop-color:#4A8021"/>
		</linearGradient>
		<path id="HIGHLIGHT_GR1" display="inline" opacity="0.25" fill="url(#HIGHLIGHT_GR1_1_)" d="M48,8C18.365,8,8,18.365,8,48
			c0,29.633,10.365,40,40,40c29.637,0,40-10.367,40-40C88,18.365,77.637,8,48,8z M48,87.023C18.842,87.023,9,77.176,9,48
			S18.842,8.977,48,8.977S87,18.824,87,48S77.158,87.023,48,87.023z"/>
	</g>
</g>
<g id="BLUE_BACKGROUNDS">
	<g id="BLUE_4_2_">
		<linearGradient id="BLUE_4_3_" gradientUnits="userSpaceOnUse" x1="47.9995" y1="8.0107" x2="47.9995" y2="87.9897">
			<stop  offset="0.0364" style="stop-color:#1B62C8"/>
			<stop  offset="0.106" style="stop-color:#1858B7"/>
			<stop  offset="0.2575" style="stop-color:#134699"/>
			<stop  offset="0.4169" style="stop-color:#0F3881"/>
			<stop  offset="0.5857" style="stop-color:#0C2E70"/>
			<stop  offset="0.7702" style="stop-color:#0B2866"/>
			<stop  offset="1" style="stop-color:#0A2663"/>
		</linearGradient>
		<path id="BLUE_4_1_" fill="url(#BLUE_4_3_)" d="M8,47.989c0,29.633,10.365,40,40,40c29.637,0,40-10.367,40-40
			c0-28.985-9.926-39.53-38.091-39.979h-3.817C17.928,8.459,8,19.004,8,47.989z"/>
		<linearGradient id="HIGHLIGHT_BLU4_1_" gradientUnits="userSpaceOnUse" x1="47.9995" y1="8.2559" x2="47.9995" y2="87.5043">
			<stop  offset="0.0364" style="stop-color:#FFFFFF"/>
			<stop  offset="0.129" style="stop-color:#F5F7FA"/>
			<stop  offset="0.2858" style="stop-color:#DBE1ED"/>
			<stop  offset="0.4876" style="stop-color:#AFBDD7"/>
			<stop  offset="0.7265" style="stop-color:#738CB8"/>
			<stop  offset="0.9942" style="stop-color:#284D92"/>
			<stop  offset="1" style="stop-color:#264C91"/>
		</linearGradient>
		<path id="HIGHLIGHT_BLU4" opacity="0.25" fill="url(#HIGHLIGHT_BLU4_1_)" d="M48,8C18.365,8,8,18.365,8,48
			c0,29.633,10.365,40,40,40c29.637,0,40-10.367,40-40C88,18.365,77.637,8,48,8z M48,87.023C18.842,87.023,9,77.176,9,48
			S18.842,8.977,48,8.977S87,18.824,87,48S77.158,87.023,48,87.023z"/>
	</g>
	<g id="BLUE_3_2_" display="none">
		<linearGradient id="BLUE_3_3_" gradientUnits="userSpaceOnUse" x1="47.9995" y1="8.0107" x2="47.9995" y2="87.9897">
			<stop  offset="0.0364" style="stop-color:#66A2D3"/>
			<stop  offset="0.2002" style="stop-color:#5C9BCE"/>
			<stop  offset="0.4773" style="stop-color:#4289C1"/>
			<stop  offset="0.8316" style="stop-color:#176CAB"/>
			<stop  offset="1" style="stop-color:#005DA0"/>
		</linearGradient>
		<path id="BLUE_3_1_" display="inline" fill="url(#BLUE_3_3_)" d="M8,47.989c0,29.633,10.365,40,40,40c29.637,0,40-10.367,40-40
			c0-28.985-9.926-39.53-38.091-39.979h-3.817C17.928,8.459,8,19.004,8,47.989z"/>
		<linearGradient id="HIGHLIGHT_BLU3_1_" gradientUnits="userSpaceOnUse" x1="47.9995" y1="8.2559" x2="47.9995" y2="87.5043">
			<stop  offset="0.0364" style="stop-color:#FFFFFF"/>
			<stop  offset="0.1184" style="stop-color:#F5F9FC"/>
			<stop  offset="0.2572" style="stop-color:#DBE9F5"/>
			<stop  offset="0.4359" style="stop-color:#AFCFEA"/>
			<stop  offset="0.6475" style="stop-color:#73ACDA"/>
			<stop  offset="0.8842" style="stop-color:#287FC6"/>
			<stop  offset="1" style="stop-color:#0067BC"/>
		</linearGradient>
		<path id="HIGHLIGHT_BLU3" display="inline" opacity="0.25" fill="url(#HIGHLIGHT_BLU3_1_)" d="M48,8C18.365,8,8,18.365,8,48
			c0,29.633,10.365,40,40,40c29.637,0,40-10.367,40-40C88,18.365,77.637,8,48,8z M48,87.023C18.842,87.023,9,77.176,9,48
			S18.842,8.977,48,8.977S87,18.824,87,48S77.158,87.023,48,87.023z"/>
	</g>
	<g id="BLUE_2_2_" display="none">
		<linearGradient id="BLUE_2_3_" gradientUnits="userSpaceOnUse" x1="47.9995" y1="8.0107" x2="47.9995" y2="87.9897">
			<stop  offset="0.0364" style="stop-color:#63B3E0"/>
			<stop  offset="0.204" style="stop-color:#59ACDA"/>
			<stop  offset="0.4875" style="stop-color:#3F99C9"/>
			<stop  offset="0.8499" style="stop-color:#147BAE"/>
			<stop  offset="1" style="stop-color:#006DA2"/>
		</linearGradient>
		<path id="BLUE_2_1_" display="inline" fill="url(#BLUE_2_3_)" d="M8,47.989c0,29.633,10.365,40,40,40c29.637,0,40-10.367,40-40
			c0-28.985-9.926-39.53-38.091-39.979h-3.817C17.928,8.459,8,19.004,8,47.989z"/>
		<linearGradient id="HIGHLIGHT_BLU2_1_" gradientUnits="userSpaceOnUse" x1="47.9995" y1="8.2559" x2="47.9995" y2="87.5043">
			<stop  offset="0.0364" style="stop-color:#FFFFFF"/>
			<stop  offset="0.1233" style="stop-color:#F5F9FB"/>
			<stop  offset="0.2704" style="stop-color:#DBE7F0"/>
			<stop  offset="0.4598" style="stop-color:#AFCBDD"/>
			<stop  offset="0.6841" style="stop-color:#73A4C4"/>
			<stop  offset="0.9352" style="stop-color:#2873A4"/>
			<stop  offset="1" style="stop-color:#13659B"/>
		</linearGradient>
		<path id="HIGHLIGHT_BLU2" display="inline" opacity="0.25" fill="url(#HIGHLIGHT_BLU2_1_)" d="M48,8C18.365,8,8,18.365,8,48
			c0,29.633,10.365,40,40,40c29.637,0,40-10.367,40-40C88,18.365,77.637,8,48,8z M48,87.023C18.842,87.023,9,77.176,9,48
			S18.842,8.977,48,8.977S87,18.824,87,48S77.158,87.023,48,87.023z"/>
	</g>
	<g id="BLUE_1_1_" display="none">
		<linearGradient id="BLUE_1_3_" gradientUnits="userSpaceOnUse" x1="47.9995" y1="8.0107" x2="47.9995" y2="87.9897">
			<stop  offset="0.0364" style="stop-color:#6BCFDB"/>
			<stop  offset="0.1944" style="stop-color:#61C7D4"/>
			<stop  offset="0.4617" style="stop-color:#47B0C3"/>
			<stop  offset="0.8033" style="stop-color:#1C8CA6"/>
			<stop  offset="1" style="stop-color:#007594"/>
		</linearGradient>
		<path id="BLUE_1_2_" display="inline" fill="url(#BLUE_1_3_)" d="M8,47.989c0,29.633,10.365,40,40,40c29.637,0,40-10.367,40-40
			c0-28.985-9.926-39.53-38.091-39.979h-3.817C17.928,8.459,8,19.004,8,47.989z"/>
		<linearGradient id="HIGHLIGHT_BLU1_1_" gradientUnits="userSpaceOnUse" x1="47.9995" y1="8.2559" x2="47.9995" y2="87.5043">
			<stop  offset="0.0364" style="stop-color:#FFFDF2"/>
			<stop  offset="0.1064" style="stop-color:#F5F8F0"/>
			<stop  offset="0.2248" style="stop-color:#DBEBE9"/>
			<stop  offset="0.3771" style="stop-color:#AFD5DF"/>
			<stop  offset="0.5394" style="stop-color:#7ABAD2"/>
			<stop  offset="1" style="stop-color:#00879A"/>
		</linearGradient>
		<path id="HIGHLIGHT_BLU1" display="inline" opacity="0.25" fill="url(#HIGHLIGHT_BLU1_1_)" d="M48,8C18.365,8,8,18.365,8,48
			c0,29.633,10.365,40,40,40c29.637,0,40-10.367,40-40C88,18.365,77.637,8,48,8z M48,87.023C18.842,87.023,9,77.176,9,48
			S18.842,8.977,48,8.977S87,18.824,87,48S77.158,87.023,48,87.023z"/>
	</g>
</g>
<g id="VIOLET_x2F_PINK_BACKGROUNDS" display="none">
	<g id="PINK_2_2_" display="inline">
		<linearGradient id="PINK_2_3_" gradientUnits="userSpaceOnUse" x1="47.9995" y1="8.0107" x2="47.9995" y2="87.9897">
			<stop  offset="0.0364" style="stop-color:#FF61C7"/>
			<stop  offset="0.1942" style="stop-color:#F759C1"/>
			<stop  offset="0.4381" style="stop-color:#E145B1"/>
			<stop  offset="0.7357" style="stop-color:#BE2396"/>
			<stop  offset="1" style="stop-color:#99007A"/>
		</linearGradient>
		<path id="PINK_2_1_" fill="url(#PINK_2_3_)" d="M8,47.988c0,29.634,10.365,40.001,40,40.001c29.637,0,40-10.367,40-40.001
			c0-28.984-9.926-39.529-38.091-39.978h-3.817C17.928,8.459,8,19.004,8,47.988z"/>
		<linearGradient id="HIGHLIGHT_PI2_2_" gradientUnits="userSpaceOnUse" x1="47.9995" y1="8.2554" x2="47.9995" y2="87.5043">
			<stop  offset="0.0364" style="stop-color:#FFFFFF"/>
			<stop  offset="0.119" style="stop-color:#FCF7FB"/>
			<stop  offset="0.2468" style="stop-color:#F3E1F0"/>
			<stop  offset="0.4038" style="stop-color:#E5BEDD"/>
			<stop  offset="0.5839" style="stop-color:#D18CC3"/>
			<stop  offset="0.7837" style="stop-color:#B84DA2"/>
			<stop  offset="0.9971" style="stop-color:#99017B"/>
			<stop  offset="1" style="stop-color:#99007A"/>
		</linearGradient>
		<path id="HIGHLIGHT_PI2_1_" opacity="0.25" fill="url(#HIGHLIGHT_PI2_2_)" d="M48,8C18.365,8,8,18.365,8,48
			c0,29.632,10.365,40,40,40c29.637,0,40-10.367,40-40C88,18.365,77.637,8,48,8z M48,87.023C18.842,87.023,9,77.176,9,48
			C9,18.824,18.842,8.976,48,8.976S87,18.824,87,48C87,77.176,77.158,87.023,48,87.023z"/>
	</g>
	<g id="PINK_1_2_">
		<linearGradient id="PINK_1_3_" gradientUnits="userSpaceOnUse" x1="47.9995" y1="8.0107" x2="47.9995" y2="87.9897">
			<stop  offset="0.0364" style="stop-color:#E64DD4"/>
			<stop  offset="0.2159" style="stop-color:#DE46CE"/>
			<stop  offset="0.4932" style="stop-color:#C832BC"/>
			<stop  offset="0.8319" style="stop-color:#A5129F"/>
			<stop  offset="1" style="stop-color:#91008F"/>
		</linearGradient>
		<path id="PINK_1_1_" display="inline" fill="url(#PINK_1_3_)" d="M8,47.989c0,29.633,10.365,40,40,40c29.637,0,40-10.367,40-40
			c0-28.985-9.926-39.53-38.091-39.979h-3.817C17.928,8.459,8,19.004,8,47.989z"/>
		<linearGradient id="HIGHLIGHT_PI2_3_" gradientUnits="userSpaceOnUse" x1="47.9995" y1="8.2554" x2="47.9995" y2="87.5043">
			<stop  offset="0.0364" style="stop-color:#FFFFFF"/>
			<stop  offset="0.119" style="stop-color:#FCF7FC"/>
			<stop  offset="0.2468" style="stop-color:#F2E1F2"/>
			<stop  offset="0.4038" style="stop-color:#E3BEE2"/>
			<stop  offset="0.5839" style="stop-color:#CE8CCD"/>
			<stop  offset="0.7837" style="stop-color:#B24DB1"/>
			<stop  offset="0.9971" style="stop-color:#91018F"/>
			<stop  offset="1" style="stop-color:#91008F"/>
		</linearGradient>
		<path id="HIGHLIGHT_PI2" display="inline" opacity="0.25" fill="url(#HIGHLIGHT_PI2_3_)" d="M48,8C18.365,8,8,18.365,8,48
			c0,29.632,10.365,40,40,40c29.637,0,40-10.367,40-40C88,18.365,77.637,8,48,8z M48,87.023C18.842,87.023,9,77.176,9,48
			C9,18.824,18.842,8.976,48,8.976S87,18.824,87,48C87,77.176,77.158,87.023,48,87.023z"/>
	</g>
	<g id="VIOLET_2_2_">
		<linearGradient id="VIOLET_2_3_" gradientUnits="userSpaceOnUse" x1="47.9995" y1="8.0107" x2="47.9995" y2="90.757">
			<stop  offset="0.0364" style="stop-color:#BA66E0"/>
			<stop  offset="0.2174" style="stop-color:#B260D8"/>
			<stop  offset="0.497" style="stop-color:#9D51C2"/>
			<stop  offset="0.8385" style="stop-color:#7C379F"/>
			<stop  offset="1" style="stop-color:#69298C"/>
		</linearGradient>
		<path id="VIOLET_2_1_" display="inline" fill="url(#VIOLET_2_3_)" d="M8,47.989c0,29.633,10.365,40,40,40
			c29.637,0,40-10.367,40-40c0-28.985-9.926-39.53-38.091-39.979h-3.817C17.928,8.459,8,19.004,8,47.989z"/>
		<linearGradient id="HIGHLIGHT_VIO2_1_" gradientUnits="userSpaceOnUse" x1="47.9995" y1="8.2554" x2="47.9995" y2="87.5043">
			<stop  offset="0.0364" style="stop-color:#FFFFFF"/>
			<stop  offset="0.1299" style="stop-color:#F9F7FB"/>
			<stop  offset="0.2745" style="stop-color:#EAE1EF"/>
			<stop  offset="0.452" style="stop-color:#D1BEDC"/>
			<stop  offset="0.6558" style="stop-color:#AF8CC1"/>
			<stop  offset="0.8786" style="stop-color:#834EA0"/>
			<stop  offset="1" style="stop-color:#69298C"/>
		</linearGradient>
		<path id="HIGHLIGHT_VIO2" display="inline" opacity="0.25" fill="url(#HIGHLIGHT_VIO2_1_)" d="M48,8C18.365,8,8,18.365,8,48
			c0,29.632,10.365,40,40,40c29.637,0,40-10.367,40-40C88,18.365,77.637,8,48,8z M48,87.023C18.842,87.023,9,77.176,9,48
			C9,18.824,18.842,8.976,48,8.976S87,18.824,87,48C87,77.176,77.158,87.023,48,87.023z"/>
	</g>
	<g id="VIOLET_1_2_">
		<linearGradient id="VIOLET_1_3_" gradientUnits="userSpaceOnUse" x1="47.9995" y1="9.7622" x2="47.9995" y2="89.7412">
			<stop  offset="0.0364" style="stop-color:#A14DDB"/>
			<stop  offset="0.2205" style="stop-color:#9949D3"/>
			<stop  offset="0.505" style="stop-color:#833CBE"/>
			<stop  offset="0.8523" style="stop-color:#60299D"/>
			<stop  offset="1" style="stop-color:#4F1F8C"/>
		</linearGradient>
		<path id="VIOLET_1_1_" display="inline" fill="url(#VIOLET_1_3_)" d="M8,47.989c0,29.633,10.365,40,40,40
			c29.637,0,40-10.367,40-40c0-28.985-9.926-39.53-38.091-39.979h-3.817C17.928,8.459,8,19.004,8,47.989z"/>
		<linearGradient id="HIGHLIGHT_VIO1_1_" gradientUnits="userSpaceOnUse" x1="47.9995" y1="8.2554" x2="47.9995" y2="87.5043">
			<stop  offset="0.0364" style="stop-color:#FFFFFF"/>
			<stop  offset="1" style="stop-color:#4A1F8C"/>
		</linearGradient>
		<path id="HIGHLIGHT_VIO1" display="inline" opacity="0.25" fill="url(#HIGHLIGHT_VIO1_1_)" d="M48,8C18.365,8,8,18.365,8,48
			c0,29.632,10.365,40,40,40c29.637,0,40-10.367,40-40C88,18.365,77.637,8,48,8z M48,87.023C18.842,87.023,9,77.176,9,48
			C9,18.824,18.842,8.977,48,8.977S87,18.824,87,48C87,77.176,77.158,87.023,48,87.023z"/>
	</g>
</g>
<g id="PLACE_YOUR_GRAPHIC_HERE">
	<linearGradient id="SVGID_1_" gradientUnits="userSpaceOnUse" x1="48.8101" y1="31.4028" x2="48.8101" y2="45">
		<stop  offset="0.0364" style="stop-color:#F8FAEF"/>
		<stop  offset="0.1854" style="stop-color:#ECEBE2"/>
		<stop  offset="0.4207" style="stop-color:#DFDAD3"/>
		<stop  offset="0.6787" style="stop-color:#D7D0CB"/>
		<stop  offset="1" style="stop-color:#D4CDC8"/>
	</linearGradient>
	<path fill-rule="evenodd" clip-rule="evenodd" fill="url(#SVGID_1_)" fill-opacity="0.44" d="M48.814,45
		c12.354,0,22.367-6.08,22.367-13.597H26.439C26.439,38.92,36.462,45,48.814,45z"/>
	<linearGradient id="SVGID_2_" gradientUnits="userSpaceOnUse" x1="48.6992" y1="30.3047" x2="48.6992" y2="68.7124">
		<stop  offset="0.0364" style="stop-color:#F8FAEF"/>
		<stop  offset="0.1854" style="stop-color:#ECEBE2"/>
		<stop  offset="0.4207" style="stop-color:#DFDAD3"/>
		<stop  offset="0.6787" style="stop-color:#D7D0CB"/>
		<stop  offset="1" style="stop-color:#D4CDC8"/>
	</linearGradient>
	<path fill-rule="evenodd" clip-rule="evenodd" fill="url(#SVGID_2_)" d="M48.701,68.712c5.749,0,10.41-2.329,10.41-5.209H38.288
		C38.288,66.383,42.952,68.712,48.701,68.712z M70.033,30.305H27.369c-0.711,0-1.288,0.575-1.288,1.287v28.034
		c0,0.711,0.577,1.287,1.288,1.287h42.664c0.711,0,1.284-0.576,1.284-1.287V31.592C71.317,30.88,70.744,30.305,70.033,30.305z
		 M68.192,57.789H29.206v-24.36h38.987V57.789z"/>
</g>
<g id="DO_NOT_EDIT_-_FOCAL_ZONE_GUIDES_ONLY" display="none">
</g>
</svg>
